<?xml version="1.0" encoding="UTF-8" standalone="yes"?>
<!DOCTYPE svg PUBLIC "-//W3C//DTD SVG 1.0//EN" "http://www.w3.org/TR/2001/REC-SVG-20010904/DTD/svg10.dtd">
<svg width="177.799995" height="58.060737" xmlns="http://www.w3.org/2000/svg" xmlns:svg="http://www.w3.org/2000/svg" xmlns:xlink="http://www.w3.org/1999/xlink" xmlns:slic3r="http://slic3r.org/namespaces/slic3r">
  <!-- 
  Generated using Slic3r 1.1.7
  http://slic3r.org/
   -->
  <g id="layer0" slic3r:z="1.75e-007">
    <polygon slic3r:type="contour" points="89.039197,1.180588 89.0541,1.1877 89.131961,1.967393 89.283785,2.783624 89.492629,3.906409 89.856523,5.237539 90.018087,5.828544 90.561748,7.327934 90.706631,7.727513 91.41817,9.293741 91.556013,9.59716 92.428724,11.186057 92.563482,11.431401 93.592014,13.01796 93.725746,13.224248 94.905061,14.791819 95.039038,14.969904 96.363975,16.506031 96.499082,16.662673 97.964208,18.157351 98.101127,18.297032 98.233395,18.416508 101.567688,21.255289 101.709931,21.369528 105.518489,23.944584 105.81853,24.147448 110.057775,26.425038 110.3735,26.594664 110.71606,26.739165 115.315632,28.679376 115.700125,28.803165 120.580671,30.374456 120.98429,30.468309 126.100161,31.657888 126.627815,31.737015 131.802342,32.512977 132.470934,32.5608 137.613083,32.928608 138.561446,32.923866 143.456832,32.899376 145.286252,32.749977 149.257604,32.425656 153.192817,31.794039 154.218758,32.283608 153.589432,32.98729 153.133451,33.574032 152.287315,34.888076 152.044859,35.29287 151.951315,35.506628 151.279939,37.151085 151.223385,37.347561 150.909881,39.074378 150.88621,39.252386 150.888833,39.386308 150.963199,41.185478 150.984455,41.312369 151.463244,43.118584 151.501567,43.237902 151.549618,43.338332 152.439873,45.138672 152.500927,45.234533 153.792559,46.992153 153.865715,47.083081 153.945186,47.164019 155.63149,48.862954 155.721561,48.940084 157.78073,50.554368 157.880755,50.627389 157.98769,50.694603 160.400571,52.207461 160.528323,52.277167 163.229698,53.651029 163.379369,53.722518 166.318647,54.940309 166.789601,55.122064 169.772288,56.124258 170.984922,56.474994 173.457094,57.139082 176.06379,57.683533 137.999173,57.683533 135.640807,57.683532 131.852632,57.683533 120.15238,57.683537 120.153605,57.670268 120.024344,57.361059 119.863986,57.109647 119.673814,56.869894 119.30284,56.44541 118.212509,55.439833 117.837954,55.096362 116.19023,53.779183 115.976817,53.610686 112.069865,50.81601 111.589515,50.474075 109.596194,49.15007 109.35274,48.988829 107.462662,47.785328 107.232284,47.638975 105.515691,46.593397 105.306641,46.466323 103.812095,45.603152 103.630064,45.498214 102.384465,44.82889 102.232584,44.747407 101.241164,44.270393 101.120011,44.212153 100.366283,43.912915 100.245262,43.867162 99.691118,43.718173 99.613731,43.703968 98.843229,43.681596 98.78414,43.683248 98.145985,43.937732 98.108759,43.952576 97.624593,44.439999 97.596349,44.468432 97.581755,44.505758 97.331565,45.1456 97.325677,45.161369 97.224753,45.431672 97.218331,45.447231 97.108231,45.713945 97.101282,45.729275 96.98215,45.992064 96.925928,46.280056 96.514637,48.386889 94.942133,56.442024 93.2513,51.685098 92.756714,50.293649 92.737569,50.239784 92.634463,50.275399 90.866933,50.885928 89.008418,51.092806 88.900005,51.104872 87.041492,50.897997 86.933077,50.885928 85.165549,50.275399 85.062443,50.239784 85.043298,50.293649 84.548713,51.685098 82.857878,56.442025 82.857878,56.442024 81.285375,48.386889 80.874083,46.280055 80.817862,45.992064 80.810914,45.976736 80.691778,45.713944 80.685356,45.698386 80.575259,45.431673 80.557257,45.38346 80.468444,45.1456 80.45385,45.108276 80.20366,44.468433 79.719497,43.98101 79.691254,43.952576 79.053096,43.698093 79.015871,43.683248 78.956782,43.681596 78.186275,43.703968 78.108889,43.718173 77.554743,43.867162 77.433721,43.912915 76.680001,44.212152 76.558847,44.270394 75.56742,44.747407 75.415539,44.82889 74.169948,45.498214 73.987918,45.603152 72.493361,46.466324 72.284312,46.593396 70.567727,47.638976 70.337352,47.785327 68.447262,48.98883 68.203809,49.150071 66.210494,50.474074 65.730144,50.816009 61.823186,53.610687 61.609775,53.779182 59.962047,55.096363 59.587496,55.439832 58.497172,56.445411 58.126201,56.869893 57.936027,57.109647 57.775663,57.361059 57.64641,57.670271 57.647637,57.683537 45.947379,57.683533 42.159204,57.683532 39.800838,57.683533 1.736213,57.683533 4.342924,57.139082 6.815091,56.474994 8.027726,56.124259 11.010403,55.122065 11.481357,54.940308 14.420638,53.722518 14.570311,53.651029 17.271698,52.277166 17.399448,52.207461 19.812317,50.694604 19.919253,50.627389 20.019279,50.554367 22.078443,48.940084 22.168513,48.862954 23.854814,47.164019 23.934285,47.083081 24.007443,46.992152 25.299088,45.234533 25.360142,45.138672 26.250384,43.338333 26.298438,43.237902 26.336761,43.118584 26.815546,41.312369 26.836801,41.185478 26.91117,39.386308 26.913794,39.252386 26.890123,39.074378 26.576623,37.347562 26.520068,37.151086 25.848689,35.506627 25.755145,35.29287 25.512692,34.888076 24.666562,33.574032 24.210575,32.987291 23.581246,32.283608 24.607189,31.794039 28.542408,32.425656 32.613563,32.758127 34.343185,32.899376 39.288709,32.924116 40.186921,32.928608 45.329067,32.560801 45.997661,32.512977 51.214697,31.730642 51.699853,31.657888 56.777123,30.477285 57.219341,30.374456 62.09988,28.803164 62.484372,28.679376 67.083943,26.739165 67.426503,26.594664 67.742228,26.425038 71.981483,24.147448 72.281524,23.944584 76.09008,21.369529 76.232323,21.25529 79.566617,18.416508 79.698885,18.297032 79.835803,18.157352 81.300923,16.662672 81.436029,16.506032 82.760967,14.969904 82.894945,14.791819 84.074265,13.224248 84.207998,13.01796 85.23653,11.4314 85.371287,11.186057 86.243997,9.59716 86.381842,9.293741 87.093381,7.727513 87.238264,7.327934 87.781922,5.828545 87.943488,5.237539 88.307381,3.906409 88.523807,2.742849 88.668042,1.967393 88.745908,1.1877 88.760809,1.180589 88.900005,1.114168" style="fill: black" />
  </g>
  <g id="layer1" slic3r:z="4.75e-007">
    <polygon slic3r:type="contour" points="89.053441,3.097387 89.370267,3.248567 89.492629,3.906409 89.579555,4.224387 90.018088,5.828545 90.313379,6.642943 90.70663,7.727512 91.181866,8.773593 91.556014,9.597161 92.197714,10.765469 92.563481,11.4314 93.362759,12.664324 93.725747,13.224249 94.675386,14.48653 95.039038,14.969904 96.132365,16.237503 96.499082,16.662673 97.729488,17.917897 98.101128,18.297033 98.460138,18.62132 101.323845,21.05945 101.709931,21.369529 105.081981,23.64945 105.818531,24.147449 109.590048,26.173745 110.373501,26.594665 111.372603,27.01611 115.315632,28.679377 116.359257,29.015372 120.580672,30.374456 121.780976,30.653561 126.100162,31.657889 127.589667,31.881252 131.802342,32.512977 133.617094,32.642783 137.613083,32.928609 140.236864,32.915484 143.456832,32.899376 148.297983,32.504025 149.257604,32.425656 150.197641,32.274777 150.741542,32.534322 153.090094,33.655029 152.87196,33.935718 152.691916,34.215325 152.033819,35.314055 151.779914,35.894253 151.333201,36.988427 151.179692,37.521721 150.948992,38.792454 150.884741,39.275619 150.891861,39.639125 150.952036,41.09496 151.009729,41.439376 151.407225,42.938914 151.511243,43.262776 151.641668,43.535371 152.405056,45.079149 152.570775,45.339345 153.689961,46.862306 153.888529,47.109111 154.104234,47.328799 155.585957,48.82162 155.830435,49.030972 157.647884,50.45576 157.919384,50.653962 158.209633,50.836399 160.35031,52.178588 160.697062,52.367788 163.030048,53.554295 163.436302,53.748337 165.876573,54.759381 167.154878,55.252719 169.23244,55.950788 172.523875,56.902784 172.798189,56.976473 173.087431,57.036885 157.872718,57.036885 125.816527,57.036887 119.789709,57.036886 119.486567,56.654711 119.312316,56.455328 118.80018,55.983001 117.783532,55.050725 116.51858,54.039532 115.939321,53.582184 112.862164,51.381068 111.558356,50.452957 109.988396,49.410158 109.327593,48.972503 107.838947,48.024613 107.213641,47.627371 105.861632,46.803861 105.294212,46.458949 104.117092,45.779106 103.623006,45.494273 102.641958,44.967106 102.22971,44.745936 101.448856,44.370235 101.120011,44.212153 100.526367,43.976469 100.197879,43.852284 99.761431,43.73494 99.551377,43.696383 98.944523,43.678763 98.78414,43.683249 98.209801,43.912283 98.108759,43.952576 97.673009,44.391258 97.596349,44.468432 97.556737,44.569741 97.331565,45.1456 97.315585,45.1884 97.224752,45.431672 97.207321,45.473902 97.108231,45.713945 97.10265,45.726257 96.98215,45.992064 96.829549,46.773755 95.691813,52.601795 94.942133,56.442024 94.131983,54.162778 92.789536,50.385988 92.737568,50.239784 92.457709,50.336453 90.866934,50.885928 89.194269,51.072118 88.900005,51.104873 87.227342,50.918684 86.933077,50.885929 85.342303,50.336453 85.062443,50.239784 85.010477,50.385988 83.66803,54.162778 82.857878,56.442024 82.108198,52.601794 80.970462,46.773754 80.817862,45.992064 80.799001,45.950457 80.691778,45.713944 80.674346,45.671715 80.575259,45.431673 80.559278,45.388874 80.468445,45.145601 80.428831,45.044292 80.20366,44.468432 79.767914,44.029752 79.691255,43.952577 79.116912,43.723542 79.015871,43.683248 78.855487,43.678763 78.248628,43.696383 78.038577,43.73494 77.602128,43.852284 77.273639,43.97647 76.68,44.212152 76.351155,44.370235 75.570298,44.745935 75.158045,44.967106 74.177004,45.494273 73.682918,45.779107 72.505791,46.458948 71.93837,46.803862 70.586371,47.62737 69.961063,48.024613 68.472409,48.972504 67.811609,49.410159 66.241653,50.452957 64.937845,51.381068 61.860686,53.582184 61.281423,54.039532 60.01647,55.050725 58.99983,55.983 58.487696,56.455328 58.313446,56.654712 58.010304,57.036886 51.983484,57.036887 19.927291,57.036885 4.712578,57.036885 5.00182,56.976473 5.276135,56.902784 8.567572,55.950789 10.645127,55.25272 11.923429,54.759382 14.363704,53.748337 14.769962,53.554294 17.102958,52.367787 17.449708,52.178588 19.590375,50.836399 19.880626,50.653962 20.152123,50.455761 21.969571,49.030971 22.214047,48.82162 23.695766,47.3288 23.911471,47.109111 24.110041,46.862305 25.229239,45.339345 25.394957,45.07915 26.158335,43.535371 26.288761,43.262776 26.392781,42.938914 26.790274,41.439376 26.847965,41.09496 26.908144,39.639124 26.915261,39.275619 26.851011,38.792454 26.620313,37.521721 26.466808,36.988428 26.020091,35.894253 25.766186,35.314056 25.108098,34.215325 24.928055,33.935718 24.709918,33.655029 27.058466,32.534323 27.60237,32.274777 28.542409,32.425657 29.502029,32.504024 34.343184,32.899376 37.563145,32.915484 40.18692,32.928608 44.129447,32.646607 45.99766,32.512977 50.267645,31.872659 51.699852,31.657888 56.019037,30.65356 57.21934,30.374456 61.440749,29.015372 62.484372,28.679377 66.4274,27.01611 66.4274,27.016111 67.426502,26.594665 68.209957,26.173745 71.981482,24.147449 72.795882,23.596814 76.090081,21.369528 76.476167,21.05945 79.339875,18.62132 79.698885,18.297032 80.070523,17.917897 81.300923,16.662672 81.73879,16.155012 82.760967,14.969904 83.124622,14.48653 84.074264,13.224249 84.437253,12.664324 85.23653,11.4314 85.6429,10.691546 86.243997,9.59716 86.618146,8.773593 87.093381,7.727512 87.486633,6.642943 87.781922,5.828545 88.210411,4.261129 88.307381,3.906408 88.429741,3.248567 88.746565,3.097388 88.900004,3.02417" style="fill: black" />
  </g>
  <g id="layer2" slic3r:z="7.25e-007">
    <polygon slic3r:type="contour" points="88.94639,4.637973 89.143014,4.731796 89.804566,5.047481 90.018087,5.828545 90.106404,6.072117 90.70663,7.727513 90.984947,8.340137 91.556013,9.59716 92.005204,10.414977 92.563481,11.4314 93.171713,12.369627 93.725747,13.224249 94.483991,14.232123 95.039039,14.969905 95.939356,16.01373 96.499081,16.662672 97.533889,17.718353 98.101127,18.297032 98.649092,18.791999 101.120641,20.89625 101.709931,21.369529 104.5755,23.307007 105.818531,24.147449 109.098169,25.909478 110.373501,26.594665 111.792681,27.19331 115.315632,28.679377 116.908535,29.192213 120.580671,30.374456 122.374117,30.791482 126.100161,31.657888 128.286159,31.985698 131.802341,32.512976 134.572228,32.711102 137.613084,32.928609 141.59167,32.908707 143.456832,32.899376 147.482166,32.570649 149.905951,33.727253 150.977809,34.23873 152.301061,34.870173 152.024618,35.33171 151.637079,36.217275 151.377584,36.85288 151.143283,37.666852 150.981582,38.557519 150.883517,39.294979 150.894384,39.849805 150.942733,41.019528 151.030792,41.545217 151.360542,42.789188 151.519305,43.283503 151.718378,43.699571 152.376041,45.029548 152.628981,45.426689 153.604462,46.754099 153.90754,47.130802 154.236774,47.466116 155.548015,48.787177 155.921163,49.106712 157.537179,50.373587 157.951574,50.676105 158.394587,50.954564 160.308425,52.154526 160.837677,52.443303 162.863674,53.473683 163.483747,53.769854 165.508178,54.608608 167.459275,55.361599 168.782568,55.806231 171.174341,56.498013 141.12904,56.498015 119.348468,56.498011 119.330527,56.475394 119.320215,56.463594 119.289905,56.43564 117.73818,55.012693 116.792205,54.256488 115.908074,53.558433 113.522412,51.851948 111.532391,50.435361 110.31523,49.626897 109.306638,48.958899 108.152518,48.224016 107.198102,47.6177 106.149917,46.979249 105.283855,46.452804 104.371255,45.925734 103.617124,45.490989 102.856537,45.082287 102.227314,44.74471 101.621935,44.453437 101.120011,44.212153 100.65977,44.029433 100.158394,43.839886 99.820025,43.748911 99.499416,43.690063 99.028934,43.676402 98.78414,43.683248 98.262981,43.891076 98.108758,43.952577 97.713356,44.35064 97.596349,44.468432 97.535888,44.623061 97.331565,45.1456 97.307175,45.210924 97.224752,45.431673 97.198146,45.496128 97.108231,45.713945 97.079442,45.777452 96.982149,45.992065 96.749235,47.185169 95.012691,56.080599 94.942133,56.442024 94.865885,56.227512 92.805091,50.42975 92.737568,50.239785 92.310415,50.38733 90.866933,50.885929 89.349147,51.054877 88.900005,51.104872 87.382218,50.935924 86.933077,50.885928 85.489597,50.38733 85.062443,50.239785 84.994921,50.42975 82.934127,56.227512 82.857878,56.442024 82.787322,56.080599 81.050778,47.185169 80.817862,45.992064 80.775791,45.899261 80.691778,45.713944 80.665172,45.649489 80.575258,45.431672 80.550868,45.366349 80.468444,45.1456 80.407982,44.990972 80.203661,44.468433 79.808261,44.07037 79.691255,43.952576 79.170092,43.744749 79.01587,43.683248 78.771075,43.676402 78.300587,43.690063 77.979986,43.74891 77.641614,43.839887 77.140238,44.029432 76.680001,44.212152 76.178078,44.453437 75.572693,44.74471 74.943467,45.082286 74.182884,45.490989 73.428754,45.925734 72.516148,46.452804 71.650086,46.979249 70.601905,47.617701 69.647491,48.224016 68.493366,48.958898 67.484776,49.626898 66.267618,50.435361 64.277598,51.851948 61.891934,53.558432 61.007797,54.256489 60.061823,55.012693 58.510107,56.43564 58.479797,56.463594 58.469485,56.475394 58.451544,56.498011 36.67097,56.498015 6.625667,56.498013 9.017443,55.806231 10.340731,55.361599 12.291824,54.608608 14.316258,53.769854 14.936336,53.473682 16.962341,52.443304 17.491592,52.154526 19.405421,50.954564 19.848438,50.676104 20.262828,50.373588 21.878842,49.106712 22.25199,48.787176 23.563226,47.466117 23.89246,47.130802 24.195539,46.754098 25.171031,45.426689 25.42397,45.029548 26.081626,43.69957 26.280698,43.283503 26.439466,42.789188 26.769214,41.545217 26.857269,41.019529 26.90562,39.849804 26.916485,39.294979 26.81842,38.557519 26.65672,37.666852 26.422424,36.85288 26.162927,36.217275 25.775387,35.331711 25.498948,34.870173 26.822198,34.23873 27.86565,33.74081 30.317848,32.570648 34.343184,32.899376 36.208342,32.908707 40.186921,32.928608 43.274114,32.707788 45.99766,32.512976 49.45655,31.99429 51.699852,31.657889 55.387298,30.800457 57.219341,30.374456 60.891473,29.192212 62.484372,28.679377 66.007323,27.19331 67.426503,26.594664 68.73451,25.891923 71.981482,24.147449 73.224513,23.307007 76.09008,21.369529 76.679371,20.89625 79.150921,18.791998 79.698885,18.297032 80.266121,17.718353 81.300922,16.662673 81.860649,16.01373 82.760966,14.969905 83.301046,14.252023 84.074264,13.224249 84.613546,12.392383 85.236529,11.431401 85.794807,10.414977 86.243997,9.59716 86.815065,8.340138 87.093382,7.727512 87.693607,6.072117 87.781923,5.828544 87.995444,5.047481 88.656995,4.731797 88.853618,4.637974 88.900004,4.615839" style="fill: black" />
  </g>
  <g id="layer3" slic3r:z="9.75e-007">
    <polygon slic3r:type="contour" points="89.692178,6.585522 89.944665,6.706003 90.41817,6.931953 90.70663,7.727512 90.788027,7.906681 91.556013,9.597161 91.812695,10.064486 92.563481,11.4314 92.980667,12.07493 93.725747,13.224249 94.292594,13.977715 95.039038,14.969904 95.746348,15.789957 96.499082,16.662673 97.338289,17.518808 98.101127,18.297032 98.838045,18.962676 100.917438,20.73305 101.70993,21.369528 104.14687,23.017201 105.81853,24.147448 108.614461,25.649599 110.373501,26.594665 112.351348,27.42897 112.351348,27.428969 115.315631,28.679376 117.457812,29.369053 120.580672,30.374457 123.044454,30.947353 126.100161,31.657888 129.039951,32.098734 131.802342,32.512977 135.527362,32.779422 137.613083,32.928608 142.896824,32.902179 143.456832,32.899376 144.634081,32.803236 151.019986,35.850524 151.662027,36.156898 151.494246,36.540295 151.421969,36.71733 151.106873,37.811986 151.014175,38.322582 150.882293,39.31434 150.896906,40.060484 150.93343,40.944097 151.051853,41.651056 151.313858,42.63946 151.527369,43.304232 151.795085,43.86377 152.347026,44.979946 152.687187,45.514032 153.518964,46.645893 153.926551,47.152494 154.369315,47.603433 155.510071,48.752733 156.01189,49.182451 157.426476,50.291415 157.983764,50.698247 158.579539,51.072727 160.26654,52.130464 160.978293,52.51882 162.697299,53.39307 163.531191,53.79137 165.139784,54.457836 167.763674,55.470479 168.332695,55.661671 169.361168,55.959141 156.441552,55.959142 146.285522,55.95914 118.7664,55.959137 117.692827,54.974661 117.065832,54.473446 115.876827,53.534681 114.182661,52.322829 111.506425,50.417762 110.642066,49.843638 109.285682,48.945294 108.466089,48.42342 107.182565,47.608029 106.438202,47.154638 105.273496,46.446657 104.625419,46.072362 103.611242,45.487704 103.071114,45.197466 102.224918,44.743484 101.795011,44.536637 101.120011,44.212153 100.793172,44.082394 100.118909,43.827488 99.878619,43.762883 99.447455,43.683742 99.113345,43.674041 98.78414,43.683248 98.31616,43.869869 98.108758,43.952576 97.753703,44.310021 97.59635,44.468432 97.515038,44.676382 97.331564,45.1456 97.298765,45.233449 97.224752,45.431673 97.188971,45.518354 97.108231,45.713945 97.069514,45.799351 96.982149,45.992065 96.668918,47.596586 95.036401,55.959136 94.770492,55.959136 92.844238,50.539887 92.737568,50.239784 92.163122,50.438207 90.866933,50.885928 89.504022,51.037639 88.900004,51.104872 87.537095,50.953164 86.933077,50.885928 85.63689,50.438207 85.062443,50.239784 84.955774,50.539887 83.02952,55.959136 82.76361,55.959136 81.131093,47.596585 80.817862,45.992065 80.811107,45.977162 80.691778,45.713945 80.655997,45.627263 80.575258,45.431672 80.542457,45.343824 80.468445,45.145601 80.387133,44.937651 80.20366,44.468432 79.848608,44.110989 79.691254,43.952576 79.223272,43.765956 79.01587,43.683248 78.686661,43.674041 78.352549,43.683742 77.921393,43.762883 77.681101,43.827488 77.006835,44.082394 76.68,44.212152 76.005002,44.536637 75.575091,44.743484 74.728887,45.197467 74.188765,45.487703 73.174588,46.072363 72.526507,46.446657 71.361801,47.154637 70.617441,47.60803 69.333917,48.423421 68.514321,48.945294 67.157943,49.843637 66.293585,50.417762 63.617349,52.32283 61.923183,53.53468 60.734171,54.473446 60.107175,54.974661 59.033609,55.959137 31.514487,55.95914 21.358457,55.959142 8.43884,55.959141 8.438839,55.959141 9.467314,55.661671 10.036333,55.470478 12.660217,54.457837 14.268813,53.79137 15.102712,53.39307 16.821725,52.518821 17.533476,52.130463 19.220469,51.072727 19.816249,50.698247 20.373533,50.291414 21.788115,49.182452 22.289933,48.752733 23.430686,47.603433 23.873448,47.152495 24.281039,46.645892 25.112824,45.514032 25.452983,44.979946 26.004917,43.86377 26.272635,43.304232 26.486152,42.63946 26.748154,41.651057 26.866572,40.944096 26.903097,40.060485 26.917709,39.314339 26.785826,38.322583 26.693129,37.811986 26.378039,36.71733 26.305762,36.540295 26.137979,36.156898 26.780023,35.850524 33.165934,32.803236 34.343185,32.899376 34.95334,32.902429 40.186921,32.928608 42.272642,32.779421 45.99766,32.512977 48.760057,32.098734 51.699852,31.657889 54.755558,30.947353 57.21934,30.374456 60.342195,29.369053 62.484372,28.679377 65.448655,27.428969 65.448655,27.42897 67.426502,26.594665 69.185546,25.649599 71.981483,24.147448 73.675094,23.002359 76.090081,21.369528 76.882575,20.733049 78.961968,18.962677 79.698885,18.297032 80.461718,17.518809 81.300923,16.662672 82.053657,15.789957 82.760966,14.969905 83.507415,13.977715 84.074264,13.224249 84.819344,12.07493 85.236529,11.4314 85.973102,10.090364 86.243996,9.597161 87.011986,7.906681 87.093382,7.727512 87.381841,6.931953 87.855346,6.706003 88.107832,6.585522 88.440998,6.426539 89.359012,6.426539" style="fill: black" />
  </g>
  <g id="layer4" slic3r:z="1.225e-006">
    <polygon slic3r:type="contour" points="91.090045,8.844234 91.248255,8.919727 91.556014,9.597161 91.620185,9.713995 92.563481,11.4314 92.789622,11.780233 93.725746,13.224248 94.101199,13.723308 95.039039,14.969905 95.553339,15.566183 96.499082,16.662673 97.14269,17.319263 98.101127,18.297032 99.026999,19.133355 100.714235,20.56985 101.70993,21.369528 103.718238,22.727392 105.818531,24.147449 108.236941,25.446771 110.373501,26.594665 112.771426,27.606169 115.315632,28.679377 118.007088,29.545891 120.580671,30.374456 123.676194,31.09425 126.100162,31.657889 129.793743,32.211771 131.802342,32.512976 136.482495,32.84774 137.613083,32.928608 141.52035,32.909064 145.83339,34.967201 148.251234,36.12098 151.194686,37.525564 151.070464,37.957117 151.046765,38.087647 150.881069,39.3337 150.89943,40.271165 150.924127,40.868664 151.072915,41.756896 151.267176,42.489735 151.535431,43.324959 151.871794,44.02797 152.318012,44.930343 152.745393,45.601376 153.433465,46.537687 153.945564,47.174186 154.501856,47.74075 155.472126,48.718288 156.102619,49.258192 157.315771,50.209242 158.015952,50.72039 158.764492,51.19089 160.224655,52.106402 161.118909,52.594337 162.530926,53.31246 163.578634,53.812886 164.77139,54.307064 167.655851,55.420268 157.775937,55.420268 118.174878,55.420263 117.647475,54.93663 117.339457,54.690402 115.84558,53.51093 114.842909,52.793711 111.48046,50.400165 110.9689,50.060376 109.264727,48.931689 108.779661,48.622825 107.167029,47.59836 106.726486,47.330024 105.263139,46.440511 104.879583,46.21899 103.60536,45.48442 103.285692,45.312646 102.222524,44.742259 101.968088,44.619839 101.120011,44.212153 100.926575,44.135357 100.079425,43.815091 99.937212,43.776854 99.395496,43.677421 99.197755,43.67168 98.784141,43.683248 98.36934,43.848663 98.108758,43.952576 97.79405,44.269402 97.596349,44.468433 97.494189,44.729702 97.331565,45.1456 97.290354,45.255975 97.224752,45.431673 97.179796,45.540581 97.108232,45.713944 97.059586,45.821251 96.982149,45.992065 96.588602,48.008001 95.141599,55.420261 94.578951,55.420261 92.87159,50.616836 92.737568,50.239784 92.015827,50.489085 90.866934,50.885928 89.658899,51.020398 88.900004,51.104872 87.691971,50.970403 86.933078,50.885929 85.784184,50.489084 85.062443,50.239784 84.928421,50.616837 83.22106,55.420261 82.658412,55.420261 81.211409,48.008 80.817862,45.992065 80.769216,45.884758 80.691779,45.713945 80.646822,45.605036 80.575259,45.431673 80.534047,45.321298 80.468445,45.145601 80.366284,44.884331 80.20366,44.468432 79.888954,44.151608 79.691255,43.952577 79.307869,43.799691 79.015871,43.683248 78.602249,43.67168 78.404508,43.677421 77.862802,43.776854 77.720587,43.81509 76.873434,44.135357 76.68,44.212153 75.831924,44.61984 75.577488,44.742258 74.514309,45.312647 74.194644,45.48442 72.920423,46.21899 72.536864,46.440512 71.073516,47.330024 70.632977,47.598359 69.020344,48.622826 68.535277,48.931688 66.83111,50.060376 66.319551,50.400165 62.9571,52.793712 61.95443,53.51093 60.460545,54.690403 60.152527,54.936629 59.625127,55.420263 20.02407,55.420268 10.144156,55.420268 13.028611,54.307064 14.221369,53.812886 15.269087,53.312459 16.681108,52.594338 17.57536,52.106402 19.035515,51.190891 19.784061,50.72039 20.484237,50.209242 21.697387,49.258191 22.327878,48.718288 23.298145,47.740751 23.854437,47.174185 24.366538,46.537686 25.054615,45.601377 25.481996,44.930343 25.928208,44.027969 26.264573,43.32496 26.532836,42.489734 26.727095,41.756896 26.875876,40.868665 26.900574,40.271164 26.918932,39.333701 26.753234,38.087646 26.729538,37.957118 26.605317,37.525564 29.548772,36.12098 31.966621,34.967201 36.279662,32.909063 40.186921,32.928608 41.317509,32.84774 45.99766,32.512977 48.006263,32.211771 51.699852,31.657889 54.062617,31.108482 57.21934,30.374457 59.79292,29.545891 62.484372,28.679377 65.028577,27.606169 67.426503,26.594664 69.636583,25.407274 71.981482,24.147449 74.081774,22.727393 76.090081,21.369528 77.085778,20.56985 78.773016,19.133354 79.698885,18.297032 80.74047,17.234433 81.300923,16.662672 82.246666,15.566183 82.760966,14.969905 83.698812,13.723307 84.074265,13.224248 85.010389,11.780233 85.236529,11.4314 86.179826,9.713995 86.243996,9.59716 86.551756,8.919727 86.709967,8.844233 87.631038,8.404711 90.168971,8.404711" style="fill: black" />
  </g>
  <g id="layer5" slic3r:z="1.475e-006">
    <polygon slic3r:type="contour" points="91.996244,10.868329 92.345844,11.035162 92.563481,11.4314 92.598576,11.485536 93.725746,13.224248 93.909803,13.4689 95.039038,14.969904 95.360331,15.34241 96.499082,16.662672 96.912508,17.084438 98.101127,18.297032 99.215952,19.304033 100.51103,20.406649 101.70993,21.369528 103.289608,22.437586 105.818531,24.147449 107.712388,25.164948 110.373501,26.594665 113.2608,27.812599 115.315632,28.679376 118.621558,29.74372 120.580672,30.374456 124.307934,31.241148 126.100162,31.657889 130.547536,32.324808 131.802341,32.512976 137.437628,32.916059 137.613084,32.928608 138.219445,32.925575 149.884442,38.491988 150.92812,38.990025 150.879844,39.353061 150.901954,40.481845 150.914824,40.793233 151.093977,41.862735 151.220493,42.340009 151.543494,43.345687 151.948502,44.192168 152.288997,44.880741 152.8036,45.688719 153.347967,46.429479 153.964576,47.195878 154.634397,47.878068 155.434183,48.683843 156.193347,49.333932 157.205066,50.127068 158.048143,50.742535 158.949445,51.309054 160.18277,52.082339 161.259525,52.669854 162.364552,53.231848 163.626079,53.834403 164.402995,54.156291 166.281825,54.881391 118.436391,54.881389 117.579983,54.881389 117.475748,54.798929 115.814333,53.487178 115.503158,53.264592 111.454495,50.382567 111.295736,50.277117 109.243771,48.918084 109.093232,48.822229 107.151491,47.588688 107.014772,47.505413 105.252781,46.434366 105.133747,46.365619 103.599478,45.481135 103.50027,45.427826 102.220128,44.741032 102.141166,44.703041 101.120011,44.212153 101.059978,44.188319 100.039939,43.802692 99.995806,43.790825 99.343535,43.671101 99.282167,43.669319 98.78414,43.683248 98.422518,43.827457 98.108759,43.952576 97.834399,44.228783 97.596349,44.468432 97.473339,44.783023 97.331565,45.1456 97.281944,45.2785 97.224753,45.431672 97.170621,45.562807 97.108231,45.713945 97.049658,45.84315 96.982149,45.992065 96.508287,48.419417 95.246797,54.881387 94.38741,54.881387 92.898941,50.693785 92.737569,50.239784 91.868533,50.539963 90.866934,50.885928 89.813776,51.003158 88.900005,51.104872 87.846847,50.987643 86.933077,50.885928 85.931479,50.539963 85.062443,50.239784 84.901071,50.693785 83.412601,54.881387 82.553215,54.881387 81.291724,48.419416 80.817863,45.992065 80.759288,45.862859 80.691778,45.713944 80.637647,45.58281 80.575258,45.431672 80.513522,45.266328 80.468444,45.1456 80.345435,44.831011 80.20366,44.468432 79.929301,44.192226 79.691254,43.952576 79.329632,43.808369 79.015871,43.683248 78.517836,43.669319 78.456469,43.671101 77.804209,43.790825 77.760075,43.802692 76.740032,44.188319 76.68,44.212152 75.658847,44.703041 75.579885,44.741032 74.299732,45.427826 74.200524,45.481135 72.666258,46.365618 72.547222,46.434366 70.785231,47.505413 70.648513,47.588688 68.706771,48.822229 68.556232,48.918084 66.504276,50.277117 66.345517,50.382567 62.296852,53.264593 61.98568,53.487177 60.324254,54.798929 60.220019,54.881389 59.363611,54.881389 11.518178,54.881391 13.397005,54.156292 14.173923,53.834403 15.435462,53.231847 16.540492,52.669855 17.617244,52.082339 18.850563,51.309054 19.751872,50.742534 20.594941,50.127069 21.606661,49.333931 22.365821,48.683844 23.165606,47.878067 23.835424,47.195878 24.452036,46.429479 24.996408,45.68872 25.51101,44.880741 25.851499,44.192169 26.25651,43.345687 26.579521,42.340008 26.706035,41.862735 26.885179,40.793233 26.89805,40.481844 26.920156,39.353061 26.87188,38.990024 27.91556,38.491988 39.580559,32.925575 40.18692,32.928608 40.362376,32.916059 45.997661,32.512976 47.252468,32.324809 51.699852,31.657888 53.49208,31.241147 57.21934,30.374457 59.243644,29.722731 62.484373,28.679376 64.539204,27.812598 67.426502,26.594665 70.087621,25.164948 71.981483,24.147448 74.532355,22.422744 76.090081,21.369528 77.288982,20.406649 78.584062,19.304033 79.698885,18.297032 80.852915,17.11972 81.300922,16.662672 82.439675,15.34241 82.760966,14.969905 83.890209,13.468899 84.074265,13.224248 85.201435,11.485536 85.236529,11.4314 85.454167,11.035162 85.803767,10.868329 86.821079,10.382882 90.978931,10.382882" style="fill: black" />
  </g>
  <g id="layer6" slic3r:z="1.725e-006">
    <polygon slic3r:type="contour" points="92.656599,12.775111 93.047514,12.961659 93.743882,13.293947 93.797392,13.319481 95.039039,14.969905 95.167322,15.118637 96.499082,16.662673 96.751491,16.920174 98.101128,18.297033 99.404904,19.47471 100.307827,20.24345 101.70993,21.369528 102.860976,22.147777 105.818531,24.147449 107.261352,24.922623 110.3735,26.594664 113.719667,28.00616 115.315632,28.679377 119.105642,29.899571 120.580672,30.374457 124.939673,31.388043 126.100162,31.657889 131.301328,32.437846 131.802342,32.512977 134.410207,32.699512 142.366754,36.496294 144.167609,37.355643 149.606697,39.951129 150.902062,40.569263 150.904477,40.692525 150.905521,40.7178 151.11504,41.968576 151.17381,42.190283 151.551557,43.366415 152.02521,44.356368 152.259982,44.83114 152.861807,45.776064 153.262469,46.321274 153.983586,47.217568 154.766937,48.015384 155.396239,48.649399 156.284074,49.409671 157.094362,50.044897 158.080333,50.764677 159.134397,51.427217 160.140884,52.058276 161.400142,52.745372 162.198177,53.151236 163.673523,53.855919 164.034601,54.005519 164.907802,54.342514 164.907801,54.342514 142.671277,54.342513 116.890262,54.342513 115.707849,53.407096 112.201292,50.910968 111.549306,50.447613 111.293877,50.27555 109.276692,48.939553 109.036036,48.786241 107.127204,47.573607 105.395078,46.520715 105.184556,46.394348 103.676291,45.524856 103.585436,45.473321 103.50507,45.429911 102.246626,44.754759 102.176928,44.719455 101.17308,44.236888 101.113843,44.20944 100.111092,43.830348 100.021232,43.796844 99.380018,43.679149 99.31983,43.668239 99.273727,43.669555 98.784141,43.683248 98.475698,43.80625 98.108758,43.952576 97.874746,44.188164 97.59635,44.468432 97.452491,44.836343 97.331564,45.145601 97.273534,45.301025 97.224753,45.431672 97.161446,45.585033 97.108231,45.713945 97.039731,45.865049 96.98215,45.992064 96.427971,48.830832 95.351994,54.342512 94.195868,54.342512 92.926293,50.770736 92.737568,50.239785 91.721239,50.59084 90.866934,50.885928 89.968651,50.98592 88.900004,51.104872 88.001724,51.004883 86.933077,50.885928 86.078773,50.59084 85.062443,50.239785 84.873718,50.770736 83.604142,54.342512 82.448017,54.342512 81.37204,48.830831 80.817862,45.992064 80.74936,45.84096 80.691779,45.713945 80.628472,45.560584 80.575258,45.431672 80.517226,45.276248 80.468444,45.1456 80.324585,44.77769 80.20366,44.468432 79.969649,44.232846 79.691254,43.952576 79.382811,43.829576 79.01587,43.683248 78.526277,43.669555 78.480174,43.668239 78.419986,43.67915 77.778782,43.796844 77.688921,43.830348 76.686168,44.20944 76.626931,44.236888 75.623085,44.719456 75.553387,44.754759 74.294932,45.429911 74.214566,45.473321 74.123712,45.524855 72.615448,46.394348 72.404925,46.520715 70.672797,47.573607 68.763967,48.786241 68.523312,48.939552 66.506133,50.275551 66.250705,50.447613 65.59872,50.910968 62.092163,53.407096 60.909743,54.342513 35.128724,54.342513 12.892201,54.342514 13.765401,54.005518 14.126478,53.855919 15.601838,53.151235 16.399876,52.745372 17.659129,52.058276 18.665611,51.427217 19.719682,50.764678 20.705646,50.044897 21.515933,49.409671 22.403765,48.649399 23.033065,48.015385 23.816413,47.217569 24.537535,46.321273 24.938201,45.776063 25.540022,44.83114 25.774791,44.356368 26.248447,43.366415 26.626205,42.190283 26.684974,41.968576 26.894483,40.7178 26.895528,40.692524 26.897941,40.569263 28.193307,39.951129 33.632401,37.355643 35.43325,36.496294 43.389796,32.699513 45.997661,32.512976 46.498674,32.437847 51.699853,31.657888 52.86034,31.388044 57.219341,30.374456 58.694368,29.899571 62.484372,28.679376 64.049831,28.019029 67.426503,26.594664 70.538658,24.922623 71.981483,24.147448 74.939035,22.147778 76.09008,21.369529 77.492186,20.24345 78.39511,19.47471 79.698884,18.297033 81.048515,16.920174 81.300923,16.662672 82.632682,15.118638 82.760966,14.969905 84.00262,13.319481 84.056128,13.293948 84.752498,12.961659 85.143412,12.775111 86.011118,12.361054 91.788892,12.361054" style="fill: black" />
  </g>
  <g id="layer7" slic3r:z="1.975e-006">
    <polygon slic3r:type="contour" points="93.316955,14.681893 93.640471,14.836279 94.216776,15.111276 95.20496,15.582838 95.821439,15.877017 96.499081,16.662672 96.555893,16.72063 98.101127,18.297033 99.593859,19.645388 100.104624,20.08025 101.709931,21.369529 102.432346,21.857971 105.81853,24.147448 106.810317,24.680299 110.3735,26.594664 114.20904,28.212589 115.315631,28.679376 119.65492,30.076412 120.580671,30.374456 125.532814,31.525965 126.100161,31.657888 130.171218,32.268376 133.244511,33.734922 136.197509,35.144063 139.046984,36.503801 148.190161,40.866829 151.213519,42.309544 151.559619,43.387143 152.101919,44.520568 152.230967,44.781538 152.920013,45.863408 153.176969,46.213067 154.002599,47.239261 154.899479,48.152702 155.358295,48.614955 156.374803,49.485411 156.983658,49.962724 158.112523,50.78682 159.31935,51.545381 160.098999,52.034214 161.540758,52.820889 162.031803,53.070624 163.566464,53.803637 142.326762,53.803638 116.200542,53.803638 115.539809,53.280927 113.580347,51.886092 111.742932,50.580272 111.023091,50.095372 109.353695,48.989717 108.675482,48.557659 107.095759,47.5541 105.662276,46.682742 105.068981,46.326614 103.820763,45.607036 103.564717,45.4618 103.338235,45.339465 102.296762,44.780717 102.100343,44.681229 101.269573,44.281863 101.102628,44.204506 100.272765,43.890774 100.019525,43.796357 99.488865,43.698954 99.319246,43.668208 99.189314,43.671917 98.784141,43.683248 98.528879,43.785042 98.108758,43.952577 97.915093,44.147546 97.596349,44.468432 97.431641,44.889664 97.331565,45.1456 97.265122,45.323552 97.224753,45.431672 97.15227,45.60726 97.108231,45.713945 97.029803,45.886948 96.982149,45.992065 96.347656,49.242247 95.457192,53.803638 94.004327,53.803638 92.953644,50.847684 92.737568,50.239784 91.573946,50.641717 90.866933,50.885929 90.123528,50.968679 88.900004,51.104872 88.156599,51.022122 86.933078,50.885929 86.226066,50.641717 85.062443,50.239784 84.846368,50.847684 83.795683,53.803638 82.342819,53.803638 81.452356,49.242246 80.817863,45.992065 80.739432,45.819061 80.691778,45.713944 80.619299,45.538359 80.575258,45.431672 80.508815,45.253722 80.468444,45.1456 80.303736,44.72437 80.203661,44.468432 80.009995,44.273463 79.691255,43.952577 79.435991,43.850783 79.01587,43.683248 78.610691,43.671917 78.480759,43.668208 78.311141,43.698954 77.780488,43.796357 77.527246,43.890774 76.697382,44.204506 76.530439,44.281863 75.699671,44.681228 75.503251,44.780717 74.461771,45.339464 74.235284,45.461801 73.979239,45.607035 72.731022,46.326614 72.137727,46.682742 70.704244,47.5541 69.124521,48.557659 68.446308,48.989717 66.776919,50.095372 66.057079,50.580272 64.219666,51.886092 62.260203,53.280927 61.599467,53.803638 35.473248,53.803638 14.233538,53.803637 15.768213,53.070623 16.25926,52.820888 17.701013,52.034214 18.480658,51.545381 19.687494,50.786821 20.81635,49.962724 21.425205,49.485411 22.441708,48.614956 22.900524,48.152702 23.797401,47.23926 24.623033,46.213068 24.879994,45.863407 25.569035,44.781538 25.698082,44.520567 26.240384,43.387144 26.586495,42.309544 29.609842,40.86683 38.753019,36.503801 41.602493,35.144062 44.555491,33.734922 47.628788,32.268376 51.699853,31.657888 52.2672,31.525965 57.21934,30.374456 58.145092,30.076411 62.484373,28.679376 63.590964,28.212589 67.426503,26.594664 70.989695,24.680298 71.981482,24.147449 75.367667,21.85797 76.090081,21.369528 77.695388,20.080251 78.206156,19.645388 79.698885,18.297032 81.278696,16.685349 81.278695,16.685348 81.300923,16.662672 81.978566,15.877017 82.595045,15.582838 83.583235,15.111276 84.159541,14.836279 84.483057,14.681893 85.201158,14.339225 92.598852,14.339225" style="fill: black" />
  </g>
  <g id="layer8" slic3r:z="2.225e-006">
    <polygon slic3r:type="contour" points="93.977311,16.588677 94.233427,16.710897 94.689669,16.928603 95.486855,17.309021 96.497128,17.791116 98.034712,18.524826 98.71012,18.847124 99.782811,19.816065 99.901423,19.917051 101.709931,21.369529 102.003714,21.568163 105.81853,24.147448 106.432797,24.477472 110.373501,26.594665 114.798213,28.461117 115.315632,28.679377 120.204196,30.253251 120.580671,30.374456 125.039575,31.411274 125.37975,31.573602 127.243469,32.462951 137.545083,37.378778 149.303954,42.989992 151.978353,44.266185 152.178627,44.684766 152.201953,44.731937 152.978219,45.95075 153.091472,46.104862 154.021609,47.260951 155.032019,48.290019 155.320352,48.580512 156.46553,49.561151 156.872953,49.88055 158.144713,50.808965 159.504303,51.663545 160.057115,52.010153 161.681372,52.896405 161.865429,52.990011 162.440655,53.264762 154.479519,53.264762 115.510821,53.264763 115.37177,53.154759 114.959401,52.861215 111.93656,50.712933 110.752303,49.915192 109.430699,49.039884 108.314927,48.329076 107.064313,47.534593 105.929473,46.844767 104.953409,46.258883 103.965236,45.689214 103.543999,45.45028 103.171397,45.249018 102.3469,44.806677 102.023756,44.643001 101.366064,44.326837 101.091414,44.199572 100.43444,43.951203 100.017818,43.79587 99.597712,43.718759 99.318663,43.668176 99.104903,43.674278 98.784141,43.683248 98.582058,43.763835 98.108758,43.952576 97.95544,44.106927 97.596349,44.468432 97.410792,44.942983 97.331565,45.1456 97.256713,45.346076 97.224753,45.431672 97.143096,45.629486 97.108232,45.713944 97.019875,45.908847 96.982149,45.992065 96.255733,49.713123 95.56239,53.264763 93.812786,53.264763 92.980995,50.924633 92.737568,50.239784 91.426651,50.692595 90.866934,50.885928 90.278404,50.95144 88.900004,51.104872 88.311476,51.039363 86.933078,50.885928 86.373361,50.692595 85.062443,50.239785 84.819015,50.924634 83.987224,53.264763 82.237622,53.264763 81.544279,49.713123 80.817863,45.992065 80.729504,45.797162 80.691778,45.713944 80.610124,45.516133 80.575258,45.431672 80.500406,45.231198 80.468444,45.1456 80.282887,44.67105 80.203661,44.468433 80.050342,44.314082 79.691254,43.952576 79.489172,43.871991 79.01587,43.683249 78.695103,43.674277 78.481344,43.668176 78.202295,43.71876 77.782197,43.795869 77.36557,43.951203 76.708594,44.199572 76.433948,44.326837 75.776257,44.643001 75.453113,44.806677 74.628608,45.249019 74.256002,45.450281 73.834766,45.689214 72.846593,46.258883 71.870531,46.844766 70.735688,47.534594 69.485076,48.329076 68.369304,49.039884 67.047705,49.915192 65.863451,50.712932 62.840611,52.861216 62.428243,53.154758 62.289191,53.264763 23.320495,53.264762 15.359355,53.264762 15.934587,52.990012 16.118643,52.896406 17.742896,52.010152 18.295705,51.663545 19.655306,50.808964 20.927054,49.88055 21.334477,49.561152 22.479653,48.580511 22.767984,48.290019 23.77839,47.260952 24.708533,46.104861 24.821785,45.95075 25.598048,44.731937 25.621373,44.684766 25.821648,44.266185 28.496046,42.989992 40.25492,37.378778 50.556545,32.46295 52.420264,31.573602 52.76044,31.411274 57.219341,30.374456 57.530622,30.27424 62.484372,28.679377 63.071086,28.431887 67.426503,26.594664 71.440732,24.437974 71.981483,24.147448 75.796297,21.568164 76.09008,21.369529 77.898592,19.917051 78.017204,19.816065 79.089893,18.847125 79.765299,18.524827 81.302879,17.791115 82.384544,17.274953 83.110343,16.928603 83.566585,16.710897 83.822701,16.588677 84.391199,16.317397 93.408812,16.317397" style="fill: black" />
  </g>
  <g id="layer9" slic3r:z="2.475e-006">
    <polygon slic3r:type="contour" points="94.637666,18.495458 94.826383,18.585516 95.162562,18.745931 95.697358,19.001136 96.494373,19.381466 97.62733,19.922095 99.171189,20.658809 101.182337,21.618506 104.227059,23.071419 105.818531,24.147449 105.908245,24.19565 110.3735,26.594664 115.218291,28.638317 115.315632,28.679377 117.355051,29.335968 119.369404,30.297191 120.960803,31.056592 134.256422,37.401127 141.845655,41.022634 152.562234,46.136477 153.084256,46.385588 153.465112,46.567328 154.040622,47.282643 155.16456,48.427336 155.282407,48.546066 156.556258,49.636891 156.762248,49.798377 158.176902,50.831108 159.689257,51.781709 160.015228,51.98609 161.371077,52.725888 130.407819,52.725889 123.33387,52.72589 114.775944,52.725888 112.130187,50.845593 110.481515,49.735013 109.507702,49.09005 107.954373,48.100495 107.032868,47.515085 106.196669,47.006792 104.837836,46.19115 104.109707,45.771394 103.523282,45.438761 103.004561,45.158571 102.397037,44.832636 101.94717,44.604773 101.462555,44.371811 101.080201,44.194639 100.596113,44.011629 100.016111,43.795382 99.706561,43.738564 99.318078,43.668145 99.020492,43.676639 98.78414,43.683248 98.635238,43.742628 98.108759,43.952576 97.995787,44.066309 97.59635,44.468432 97.389943,44.996304 97.331564,45.145601 97.248302,45.368602 97.224752,45.431673 97.133922,45.651711 97.108231,45.713945 97.009947,45.930747 96.98215,45.992064 96.187026,50.065077 95.667587,52.725889 93.621245,52.725889 93.008346,51.001582 92.737568,50.239784 91.279357,50.743473 90.866934,50.885928 90.433281,50.9342 88.900004,51.104872 88.466352,51.056602 86.933077,50.885928 86.520654,50.743472 85.062443,50.239784 84.791664,51.001583 84.178765,52.725889 82.132424,52.725889 81.612988,50.065078 80.817862,45.992065 80.719577,45.775262 80.691779,45.713945 80.629406,45.562846 80.629407,45.562846 80.575259,45.431673 80.517143,45.276026 80.517144,45.276026 80.468445,45.145601 80.262038,44.617729 80.20366,44.468432 80.090689,44.3547 79.691255,43.952577 79.542352,43.893198 79.015871,43.683248 78.779516,43.676639 78.48193,43.668146 78.093449,43.738564 77.783903,43.795382 77.203895,44.011629 76.719806,44.194639 76.337458,44.37181 75.852843,44.604773 75.402976,44.832636 74.795447,45.158571 74.276722,45.43876 73.690293,45.771395 72.962166,46.19115 71.603334,47.006792 70.767135,47.515085 69.845629,48.100495 68.2923,49.09005 67.31849,49.735014 65.669823,50.845592 63.024067,52.725888 54.466142,52.72589 47.392193,52.725889 16.428937,52.725888 17.78478,51.986091 18.110751,51.781709 19.623117,50.831107 21.037759,49.798378 21.24375,49.636891 22.517597,48.546066 22.635444,48.427336 23.759378,47.282644 24.33489,46.567328 24.644358,46.419654 24.644358,46.419655 25.237768,46.136477 35.954349,41.022634 43.571999,37.387571 56.76782,31.090659 58.430608,30.297191 60.444955,29.335968 62.484372,28.679376 62.581714,28.638316 67.426502,26.594665 71.891768,24.19565 71.981482,24.147449 73.572954,23.071418 76.617673,21.618507 78.628826,20.658808 80.172681,19.922096 81.305635,19.381466 82.102651,19.001136 82.63745,18.745931 82.973629,18.585516 83.162346,18.495458 83.581238,18.295568 94.218773,18.295568" style="fill: black" />
  </g>
  <g id="layer10" slic3r:z="2.725e-006">
    <polygon slic3r:type="contour" points="95.298022,20.402241 95.419339,20.460135 95.635454,20.563258 95.979253,20.72732 96.491619,20.971817 97.219949,21.319364 98.212429,21.792966 99.505312,22.409915 102.944472,24.05105 106.67375,25.830623 106.67479,25.831119 109.912889,27.376309 113.244691,28.966214 115.519221,30.05159 116.513448,30.526026 141.269376,42.339305 146.146228,44.666491 153.032714,47.952652 153.368166,48.112731 153.998048,48.413305 155.0543,48.917339 156.553926,49.632942 156.646987,49.712632 156.651544,49.716204 158.209092,50.853251 159.874209,51.899872 159.973344,51.962029 160.385684,52.187015 150.969158,52.187015 134.250529,52.187018 114.024658,52.187014 112.323813,50.978253 110.210729,49.554836 109.584705,49.140214 107.593819,47.871913 107.001424,47.495579 106.463866,47.168818 104.722263,46.123417 104.25418,45.853573 103.502564,45.427241 102.837725,45.068124 102.447173,44.858594 101.870585,44.566546 101.559047,44.416785 101.068986,44.189706 100.757787,44.072056 100.014403,43.794894 99.815408,43.758369 99.317495,43.668114 98.93608,43.679 98.78414,43.683248 98.688418,43.721421 98.108758,43.952577 98.036134,44.025691 97.596349,44.468432 97.369093,45.049625 97.331565,45.1456 97.239891,45.391128 97.224752,45.431672 97.124747,45.673937 97.108231,45.713945 97.00002,45.952646 96.982149,45.992065 96.095102,50.535954 95.772785,52.187014 93.429704,52.187014 93.035698,51.078532 92.737568,50.239784 91.132064,50.794349 90.866933,50.885929 90.588157,50.91696 88.900004,51.104872 88.621227,51.073841 86.933077,50.885928 86.667948,50.794349 85.062444,50.239784 84.764312,51.078533 84.370306,52.187014 82.027227,52.187014 81.70491,50.535954 80.817863,45.992065 80.70965,45.753364 80.691778,45.713944 80.591773,45.47168 80.575258,45.431672 80.483583,45.186146 80.468444,45.1456 80.241189,44.564409 80.20366,44.468433 80.131036,44.395319 79.691254,43.952576 79.595531,43.914404 79.01587,43.683248 78.863928,43.678999 78.482517,43.668113 77.984604,43.758369 77.78561,43.794895 77.04222,44.072056 76.73102,44.189705 76.240966,44.416785 75.929429,44.566546 75.352839,44.858595 74.962284,45.068125 74.29744,45.42724 73.545821,45.853574 73.077739,46.123417 71.336136,47.168818 70.798579,47.495579 70.206184,47.871912 68.215297,49.140215 67.589277,49.554835 65.476194,50.978253 63.775352,52.187014 43.549481,52.187018 26.830851,52.187015 17.414326,52.187015 17.826664,51.962029 17.925799,51.899872 19.590927,50.853251 21.148463,49.716205 21.153021,49.712632 21.246082,49.632942 22.745705,48.917338 23.801953,48.413306 24.431838,48.112732 24.76729,47.952652 31.653778,44.666491 36.530635,42.339305 61.258157,30.539582 62.28079,30.051591 64.555316,28.966214 67.887116,27.37631 71.125223,25.831119 71.126263,25.830623 74.784149,24.085117 78.294701,22.409915 79.587585,21.792966 80.580063,21.319365 81.308391,20.971817 81.820758,20.727319 82.164558,20.563258 82.380673,20.460135 82.50199,20.402241 82.771279,20.27374 95.028733,20.27374" style="fill: black" />
  </g>
  <g id="layer11" slic3r:z="2.975e-006">
    <polygon slic3r:type="contour" points="95.958377,22.309023 96.012297,22.334754 96.108348,22.380587 96.261147,22.453503 96.488864,22.562168 96.812568,22.716634 97.25367,22.927124 97.828283,23.201322 99.356801,23.930717 107.741316,27.931721 107.743659,27.932838 109.180807,28.618632 110.730936,29.358339 111.66904,29.80599 112.122911,30.022572 148.282329,47.277483 150.446799,48.310346 153.503197,49.768829 153.652078,49.839875 153.931636,49.973277 154.400427,50.196981 155.123883,50.542205 156.147183,51.030513 157.441503,51.648144 145.167189,51.648146 113.273371,51.64814 112.51744,51.110913 109.939941,49.374657 109.661708,49.19038 107.233265,47.643331 106.969978,47.476071 106.731063,47.330844 104.606689,46.055683 104.398653,45.935754 103.481846,45.415721 102.67089,44.977679 102.497311,44.884554 101.793999,44.528318 101.655537,44.461757 101.057772,44.184771 100.919462,44.132484 100.012697,43.794407 99.924254,43.778173 99.31691,43.668082 98.851669,43.681361 98.78414,43.683248 98.741597,43.700214 98.108758,43.952576 98.076481,43.985072 97.596349,44.468432 97.348245,45.102944 97.331565,45.1456 97.231481,45.413652 97.224752,45.431673 97.115571,45.696165 97.108232,45.713944 96.990091,45.974546 96.982149,45.992064 96.026393,50.887909 95.877983,51.64814 93.238163,51.64814 93.063049,51.155481 92.737569,50.239784 90.984769,50.845228 90.866934,50.885928 90.743032,50.899721 88.900004,51.104872 88.776104,51.091081 86.933077,50.885928 86.815243,50.845228 85.062443,50.239784 84.736961,51.155482 84.561847,51.64814 81.922029,51.64814 81.773618,50.887908 80.817862,45.992065 80.699721,45.731464 80.691778,45.713944 80.582599,45.449454 80.575258,45.431672 80.475173,45.163621 80.468444,45.1456 80.220341,44.51109 80.20366,44.468432 80.171383,44.435938 79.691254,43.952576 79.648712,43.935612 79.01587,43.683248 78.94834,43.68136 78.483103,43.668082 77.87576,43.778173 77.787318,43.794407 76.880544,44.132483 76.742232,44.184772 76.144476,44.461757 76.006014,44.528319 75.302703,44.884553 75.129122,44.977679 74.318158,45.415721 73.401349,45.935753 73.193312,46.055684 71.068939,47.330844 70.830024,47.476071 70.566737,47.643331 68.138294,49.19038 67.860062,49.374657 65.282568,51.110912 64.526637,51.64814 32.63282,51.648146 20.358506,51.648144 21.652831,51.030513 22.676124,50.542206 23.399579,50.196981 23.86837,49.973277 24.147928,49.839876 24.29681,49.768828 27.353207,48.310347 29.51768,47.277483 65.677102,30.022573 66.130972,29.80599 67.140464,29.324273 68.619202,28.618632 70.056354,27.932838 70.058696,27.931722 78.443213,23.930716 79.971728,23.201323 80.546344,22.927123 80.987445,22.716634 81.311146,22.562169 81.538866,22.453502 81.691666,22.380586 81.787716,22.334754 81.841635,22.309024 81.961319,22.251911 95.838693,22.251911" style="fill: black" />
  </g>
</svg>
